<?xml version="1.0" encoding="UTF-8" standalone="no"?>
<svg
   xmlns:dc="http://purl.org/dc/elements/1.1/"
   xmlns:cc="http://creativecommons.org/ns#"
   xmlns:rdf="http://www.w3.org/1999/02/22-rdf-syntax-ns#"
   xmlns:svg="http://www.w3.org/2000/svg"
   xmlns="http://www.w3.org/2000/svg"
   xmlns:sodipodi="http://sodipodi.sourceforge.net/DTD/sodipodi-0.dtd"
   xmlns:inkscape="http://www.inkscape.org/namespaces/inkscape"
   version="1.1"
   id="svg48"
   width="460"
   height="460"
   viewBox="0 0 460 460"
   sodipodi:docname="chaos-1.svg"
   inkscape:version="1.0 (4035a4fb49, 2020-05-01)">
  <metadata
     id="metadata54">
    <rdf:RDF>
      <cc:Work
         rdf:about="">
        <dc:format>image/svg+xml</dc:format>
        <dc:type
           rdf:resource="http://purl.org/dc/dcmitype/StillImage" />
        <dc:title></dc:title>
      </cc:Work>
    </rdf:RDF>
  </metadata>
  <defs
     id="defs52" />
  <sodipodi:namedview
     inkscape:document-rotation="0"
     pagecolor="#ffffff"
     bordercolor="#666666"
     borderopacity="1"
     objecttolerance="10"
     gridtolerance="10"
     guidetolerance="10"
     inkscape:pageopacity="0"
     inkscape:pageshadow="2"
     inkscape:window-width="1788"
     inkscape:window-height="947"
     id="namedview50"
     showgrid="false"
     inkscape:zoom="1.0207317"
     inkscape:cx="410"
     inkscape:cy="253.2497"
     inkscape:window-x="0"
     inkscape:window-y="0"
     inkscape:window-maximized="0"
     inkscape:current-layer="g56" />
  <g
     inkscape:groupmode="layer"
     inkscape:label="Image"
     id="g56">
    <path
       style="fill:#000000;stroke-width:0.637263"
       d="m 230.82544,456.68567 c -0.36994,-2.20971 -0.85548,-5.45148 -1.07897,-7.20396 -0.2235,-1.75247 -1.38682,-8.09458 -2.58517,-14.09359 -1.19835,-5.99899 -2.17881,-11.2006 -2.17881,-11.55912 0,-0.35852 1.07538,-0.87548 2.38973,-1.1488 l 2.38974,-0.49695 -2.69314,-0.6172 c -2.99864,-0.68721 -2.95125,-0.6003 -4.23762,-7.77106 -0.50301,-2.80395 -1.3508,-6.48366 -1.88398,-8.17713 l -0.96942,-3.07903 2.16325,-0.90386 c 1.18978,-0.49713 2.58568,-0.90386 3.10199,-0.90386 0.51632,0 1.09262,-0.24896 1.28067,-0.55323 0.18805,-0.30428 -1.33386,-0.90885 -3.38201,-1.3435 -2.04815,-0.43464 -3.98678,-0.9743 -4.30806,-1.19924 -1.03479,-0.72449 -2.41581,-7.32546 -1.59018,-7.60067 1.09631,-0.36544 0.8768,-1.22409 -0.39817,-1.55751 -0.78544,-0.2054 -1.58446,-1.87687 -2.63472,-5.51159 -0.82909,-2.86924 -1.39718,-5.29459 -1.26243,-5.38966 0.13474,-0.0951 0.96191,-0.48203 1.83814,-0.85988 1.58277,-0.68253 1.57827,-0.68991 -0.68979,-1.13202 -2.21762,-0.43226 -2.3659,-0.64867 -5.18234,-7.56331 -1.59466,-3.91508 -2.78088,-7.24672 -2.63603,-7.40365 0.14484,-0.15693 2.80295,1.02868 5.90691,2.63469 6.33573,3.27816 5.66116,3.61612 5.96134,-2.98663 l 0.14486,-3.18631 -2.86769,-0.74529 c -2.00505,-0.52111 -2.37716,-0.76072 -1.23701,-0.79658 2.49533,-0.0785 4.05627,-1.49828 3.59335,-3.26847 -0.21516,-0.82278 -0.0813,-1.86935 0.29742,-2.32571 0.49439,-0.59571 0.48843,-1.07095 -0.0212,-1.68495 -0.39037,-0.47036 -0.52909,-1.03588 -0.30828,-1.2567 0.22082,-0.22081 -0.4269,-0.73045 -1.43937,-1.13253 l -1.84085,-0.73105 1.68626,-0.59234 c 1.68428,-0.59164 2.82591,-2.77545 1.78669,-3.41773 -0.30228,-0.18682 -0.39611,-0.73967 -0.2085,-1.22857 0.25029,-0.65225 -0.47814,-1.00963 -2.73621,-1.34242 -1.69251,-0.24944 -3.64612,-0.65997 -4.34136,-0.91229 -1.26057,-0.45751 -1.26057,-0.45976 0,-0.81195 0.69524,-0.19425 2.77912,-0.69587 4.63085,-1.11472 3.0265,-0.68457 3.32169,-0.89953 2.92057,-2.12675 -0.72548,-2.21957 -0.73993,-3.85951 -0.0418,-4.74282 0.89956,-1.13817 -0.72772,-2.67731 -3.46669,-3.27891 l -2.14159,-0.47039 2.70836,-0.76263 c 2.46933,-0.69532 2.70751,-0.94325 2.69861,-2.80917 -0.005,-1.12559 -0.29213,-2.47669 -0.63726,-3.00243 -0.55778,-0.84969 -0.69831,-0.84969 -1.26477,0 -0.55959,0.83939 -0.71075,0.84156 -1.24025,0.0178 -0.50527,-0.78605 -0.66878,-0.73441 -1.00911,0.31863 -0.22338,0.69116 -0.64955,1.8302 -0.94705,2.53119 -0.49548,1.16749 -0.54526,1.14073 -0.59273,-0.31863 -0.0866,-2.66278 -0.77264,-4.46084 -1.70192,-4.46084 -0.48486,0 -0.88157,0.28919 -0.88157,0.64266 0,0.3822 -0.55031,0.31762 -1.35778,-0.15932 -0.96352,-0.5691 -1.43281,-0.59691 -1.61615,-0.0958 -0.14209,0.38842 -0.66904,1.24872 -1.17099,1.91179 -0.85075,1.12382 -0.91402,1.0605 -0.93292,-0.9337 -0.0153,-1.61802 -0.24907,-2.05148 -0.9593,-1.77894 -0.51979,0.19946 -1.20974,-0.12337 -1.54536,-0.72309 -0.33348,-0.59589 -0.79394,-0.89582 -1.02324,-0.66652 -0.2293,0.22931 -2.53677,4.52844 -5.12771,9.55364 -2.59093,5.02519 -4.71516,8.56318 -4.72051,7.86219 -0.005,-0.70099 0.5562,-4.42898 1.24786,-8.28442 1.43019,-7.97203 1.6267,-12.42663 0.5482,-12.42663 -0.39947,0 -1.06653,-0.46527 -1.48235,-1.03393 -0.65855,-0.90062 -0.97901,-0.67464 -2.48523,1.75247 -1.05221,1.69551 -1.5438,2.16268 -1.25564,1.19325 0.26046,-0.87623 0.4869,-2.45032 0.50319,-3.49796 0.0272,-1.74868 -0.15319,-1.9088 -2.20079,-1.95367 -1.27981,-0.028 -2.77433,0.4285 -3.50659,1.07118 -1.25681,1.10306 -1.27264,1.07564 -1.04343,-1.80631 0.2062,-2.59273 0.10322,-2.87666 -0.9033,-2.49042 -0.66487,0.25513 -1.34734,0.0966 -1.6455,-0.38223 -0.40952,-0.65769 -0.76155,-0.66192 -1.79477,-0.0216 -1.6987,1.05276 -1.87643,1.01023 -1.51729,-0.36315 0.44405,-1.69803 -1.29349,-2.85377 -3.54644,-2.35894 -1.29889,0.28528 -1.79046,0.70708 -1.55108,1.33089 0.24902,0.64894 -0.13044,0.91329 -1.31088,0.91329 -1.05191,0 -1.66134,0.35065 -1.66134,0.95589 0,0.52575 -0.43015,0.9559 -0.95589,0.9559 -1.12581,0 -1.21734,0.86981 -0.27653,2.62772 0.62864,1.17463 0.52158,1.2421 -1.43384,0.90375 -1.51824,-0.26271 -2.54298,-0.0284 -3.63964,0.83238 -1.38385,1.08614 -1.45824,1.39357 -0.79657,3.29166 1.05135,3.01589 0.9851,3.10723 -1.7501,2.41296 -3.05943,-0.77657 -5.97145,0.72601 -5.67004,2.92569 0.11313,0.82567 -0.18457,1.37736 -0.7717,1.43006 -0.52574,0.0472 -1.24266,0.15285 -1.59316,0.23478 -0.35049,0.0819 -0.82522,0.12405 -1.05495,0.0936 -0.22974,-0.0305 -1.79847,1.56082 -3.48607,3.53619 -2.28849,2.67869 -2.62775,3.30286 -1.33478,2.45567 1.81355,-1.18829 2.4341,-0.45221 0.7777,0.92248 -0.52574,0.43632 -0.95589,1.10233 -0.95589,1.48 0,0.44739 0.26649,0.4202 0.76471,-0.078 1.06152,-1.06151 1.81795,-0.95653 1.37753,0.19118 -0.54522,1.42083 0.0915,1.17202 2.40257,-0.9388 2.46865,-2.25476 3.15742,-2.05418 1.25428,0.36527 -1.37272,1.74513 -1.31447,3.03508 0.0743,1.64626 1.08983,-1.08984 1.79965,-0.92595 1.32679,0.30634 -0.26186,0.68238 -0.15683,0.90586 0.29459,0.62686 0.38584,-0.23845 0.88165,-0.14211 1.1018,0.2141 0.22015,0.35621 1.10027,0.64766 1.95582,0.64766 3.23357,0 1.34708,1.02292 -4.32036,2.34266 -5.24422,1.22119 -6.06633,1.26982 -7.64715,0.45234 -1.7757,-0.91825 -2.37224,-0.46459 -1.0836,0.82405 0.49201,0.49202 -0.12185,0.96346 -2.1578,1.65718 -2.79374,0.95193 -2.90466,0.93573 -6.10438,-0.89171 -3.66814,-2.09496 -4.19213,-1.69346 -1.34715,1.03221 2.38597,2.28591 2.40206,2.86768 0.0793,2.86768 -1.00787,0 -3.49301,0.73436 -5.52253,1.63191 -3.6157,1.59903 -3.7535,1.61114 -6.84083,0.60133 -1.73294,-0.56681 -3.27059,-0.9108 -3.41699,-0.76439 -0.14639,0.1464 0.0367,1.06264 0.40674,2.0361 0.37011,0.97346 0.59321,1.83816 0.49578,1.92158 -0.0974,0.0834 -3.04483,1.57958 -6.54977,3.32483 -3.50495,1.74525 -7.37632,3.78692 -8.60305,4.53705 -1.22673,0.75013 -3.019044,1.36495 -3.982904,1.36626 -0.96386,0.001 -1.68078,0.31584 -1.59315,0.69895 0.0876,0.38311 -0.40336,1.02833 -1.09107,1.43384 -0.68771,0.4055 -2.33093,1.3825 -3.6516,2.17111 -1.32067,0.78862 -2.56479,1.43384 -2.7647,1.43384 -0.56699,0 5.43364,-8.43579 7.11778,-10.00632 0.82764,-0.7718 1.5048,-1.71953 1.5048,-2.10607 0,-0.38653 1.16934,-2.42472 2.598534,-4.5293 l 2.59853,-3.82651 2.22279,1.69541 c 1.22254,0.93247 2.33603,1.58218 2.47442,1.44379 0.13839,-0.1384 -0.59614,-1.5295 -1.63228,-3.09136 -2.11974,-3.19522 -2.31959,-3.92071 -0.93347,-3.38881 0.61054,0.23429 0.95589,-0.0113 0.95589,-0.67968 0,-1.53288 1.90775,-4.18797 3.00916,-4.18797 0.60058,0 0.80992,-0.36708 0.56836,-0.99659 -0.21033,-0.54811 0.26083,-2.14371 1.04703,-3.54575 1.47524,-2.63084 1.83909,-2.73227 6.20892,-1.73075 1.12028,0.25676 1.08736,-0.0731 -0.40468,-4.05428 -1.09491,-2.92153 -1.09009,-3.06938 0.18683,-5.73536 0.7209,-1.50509 1.67316,-3.66853 2.11613,-4.80763 0.6496,-1.67047 1.16027,-2.07111 2.63988,-2.07111 2.13557,0 2.06711,0.20368 0.99035,-2.94687 -0.70794,-2.07143 -0.69975,-2.96602 0.0508,-5.54555 0.685,-2.35425 1.13045,-2.9853 1.89908,-2.69035 0.5832,0.22379 1.63052,-0.20309 2.49826,-1.01829 1.80812,-1.69865 1.94605,-0.83959 0.21956,1.36759 -1.50219,1.92044 -1.62011,2.81803 -0.30388,2.31294 0.7919,-0.30388 0.84644,-0.14041 0.29621,0.88772 -0.91226,1.70457 -0.33452,1.58605 2.3869,-0.48968 l 2.29419,-1.74986 -0.87894,1.59055 c -0.48342,0.87479 -0.80689,1.83898 -0.71884,2.14263 0.0881,0.30365 -0.28117,1.22556 -0.8205,2.04868 -1.12636,1.71903 -1.25934,2.42619 -0.35065,1.86458 0.36124,-0.22325 0.46807,0.0326 0.25046,0.59966 -0.20874,0.54394 -0.11372,0.98899 0.21115,0.98899 1.091,0 4.64379,-3.60697 4.64379,-4.71461 0,-0.60556 0.30045,-0.91029 0.67144,-0.68101 0.65518,0.40493 5.05093,-2.17566 5.05958,-2.97029 0.003,-0.22007 -0.4426,-1.46983 -0.98888,-2.77724 -0.54627,-1.30742 -0.86918,-2.50117 -0.71757,-2.65278 0.1516,-0.1516 1.31395,0.33697 2.58299,1.08572 2.04011,1.2037 2.35254,1.2436 2.69755,0.34453 0.21461,-0.55926 0.90007,-1.01684 1.52325,-1.01684 1.67058,0 3.47324,-3.13294 3.26011,-5.66594 -0.15807,-1.87862 -0.0287,-2.09817 0.98996,-1.68017 2.35496,0.96632 3.60097,1.1734 3.20496,0.53265 -0.21809,-0.35289 0.28645,-1.00713 1.1212,-1.45387 1.53789,-0.82305 2.50744,-2.73489 2.2709,-4.47793 -0.19295,-1.42185 -0.40316,-1.48379 -2.52507,-0.74409 -2.23782,0.78011 -2.50907,0.17819 -0.66979,-1.48633 1.60876,-1.45591 1.60665,-2.03912 -0.009,-2.55199 -0.70608,-0.2241 -1.11931,-0.67357 -0.91829,-0.99884 0.54587,-0.88322 -1.15736,-0.71347 -2.59492,0.25863 -3.07452,2.07903 -3.73326,1.69907 -1.3309,-0.76766 3.75148,-3.85199 2.28469,-5.54518 -3.39306,-3.91682 -3.08412,0.88451 -3.14103,0.34752 -0.10513,-0.99191 2.74555,-1.21134 3.95467,-2.82115 2.11824,-2.8202 -0.60237,3e-4 -4.24966,0.85409 -8.1051,1.89729 -3.85544,1.0432 -7.41935,1.90325 -7.9198,1.91122 -0.50044,0.008 2.6334,-2.30285 6.9641,-5.13515 4.9946,-3.26651 7.59155,-5.32421 7.10163,-5.627 -0.42481,-0.26254 -0.58859,-0.95627 -0.36397,-1.54161 0.39263,-1.02319 -0.28525,-1.32719 -2.75497,-1.23546 -1.10938,0.0412 -0.9982,-0.8896 0.15932,-1.33378 0.52574,-0.20175 0.95589,-0.96234 0.95589,-1.69022 0,-1.17204 -0.27332,-1.27989 -2.38973,-0.94305 -2.23917,0.35638 -2.2976,0.32571 -0.92746,-0.48671 0.80426,-0.47688 1.86935,-1.65168 2.36688,-2.61067 0.78784,-1.51858 0.78317,-1.7902 -0.0363,-2.10464 -0.51747,-0.19857 -1.79764,-0.23529 -2.84482,-0.0816 -2.39438,0.35142 -2.41753,-0.15901 -0.0678,-1.49556 1.28238,-0.72944 1.8281,-1.53793 1.8281,-2.70837 0,-1.70589 -0.71336,-2.19701 -1.45297,-1.0003 -0.28628,0.46322 -0.66823,0.45635 -1.24505,-0.0224 -0.45765,-0.37981 -1.19534,-0.60881 -1.63933,-0.50889 -0.44398,0.0999 -1.00746,-0.53525 -1.25218,-1.41148 l -0.44494,-1.59316 -0.6661,1.63462 c -0.36636,0.89904 -0.8915,3.33657 -1.16698,5.41674 -0.27548,2.08016 -0.60789,3.20857 -0.73869,2.50758 -0.1308,-0.70099 -0.67625,-2.64754 -1.2121,-4.32567 -0.84887,-2.65839 -1.15122,-2.99874 -2.34889,-2.64402 -0.75603,0.22392 -1.73307,0.86313 -2.17118,1.42047 -0.72272,0.91939 -0.79658,0.91342 -0.79658,-0.0643 -1e-5,-0.7247 -0.52185,-1.07769 -1.59317,-1.07769 -1.08873,0 -1.59624,0.35309 -1.60291,1.11521 -0.008,0.89151 -0.12258,0.93704 -0.57221,0.22698 -0.78458,-1.23906 -4.86878,-2.55221 -5.90151,-1.89746 -0.46478,0.29467 -1.49028,0.54015 -2.27889,0.54551 -0.81907,0.006 -1.43384,0.40348 -1.43384,0.92804 0,0.50506 -0.33108,1.1229 -0.73573,1.37299 -0.40465,0.25009 -0.56695,0.18163 -0.36067,-0.15213 0.69739,-1.12841 -0.69197,-2.35156 -2.67111,-2.35156 -2.46231,0 -2.52874,0.0728 -3.16645,3.47004 -0.54047,2.87919 -1.13824,2.47513 -1.48237,-1.002 -0.23257,-2.34989 -2.33612,-3.03182 -5.746244,-1.86283 -1.44597,0.49568 -2.51884,0.57787 -2.74597,0.21037 -0.61281,-0.99155 -1.57062,-0.68355 -1.59235,0.51205 -0.0193,1.0621 -0.0606,1.0621 -0.86683,0 -1.19495,-1.57414 -1.50871,-1.42564 -2.69285,1.27452 l -1.04801,2.38974 -1.03165,-2.38649 c -0.59979,-1.38748 -1.47667,-2.38785 -2.09474,-2.38973 -0.5847,-0.002 -1.49453,-0.16881 -2.02183,-0.37116 -0.52731,-0.20234 -1.51199,0.18534 -2.18818,0.86154 -1.14827,1.14826 -1.27444,1.15738 -1.91105,0.13801 -0.54989,-0.88052 -1.33777,-1.03118 -4.07725,-0.77967 -1.86761,0.17148 -3.51022,0.4134 -3.65025,0.53761 -0.14004,0.12421 0.82381,2.82761 2.14188,6.00756 1.31807,3.17994 2.25027,5.92793 2.07156,6.10664 -0.1787,0.17871 -2.04014,-0.54091 -4.13651,-1.59916 -2.7539,-1.39017 -3.92461,-2.37434 -4.21884,-3.54667 -0.39026,-1.55491 -1.65749,-2.30824 -1.65749,-0.98532 0,1.93625 -7.42391,-1.32297 -8.44884,-3.70918 -0.40339,-0.93916 -1.22214,-2.19617 -1.81946,-2.79337 -1.02311,-1.02291 -1.13916,-1.00577 -2.00344,0.29591 -0.82862,1.24796 -1.12728,1.30973 -3.08521,0.6381 -11.08032,-3.80089 -15.59478,-5.26493 -16.2347,-5.26493 -0.41477,0 -1.10654,-0.8508 -1.53727,-1.89066 -0.94117,-2.27218 -2.55255,-3.83419 -2.56756,-2.48889 -0.0263,2.36013 -0.96736,2.6462 -4.84955,1.47425 -2.05906,-0.62158 -4.03051,-1.192 -4.381,-1.26758 -9.64613,-2.0802 -19.2281102,-4.38226 -19.5958002,-4.70787 -0.26284,-0.23276 1.31438,-0.77903 3.50495,-1.21392 2.19057,-0.4349 7.5465802,-1.67316 11.9022502,-2.75169 7.47572,-1.8511 7.96518,-1.89835 8.73659,-0.84337 0.75711,1.03541 0.87147,0.99845 1.55547,-0.50276 0.61408,-1.34777 1.6329,-1.84471 6.05671,-2.95423 2.92514,-0.73365 5.4793,-1.33391 5.6759,-1.33391 0.19661,0 0.67045,0.78862 1.05299,1.75248 l 0.69551,1.75247 0.74511,-2.12855 c 0.86255,-2.46404 1.54191,-2.92498 6.19727,-4.20466 1.88342,-0.51772 6.28907,-1.80245 9.79033,-2.85494 3.50126,-1.0525 6.54938,-1.70987 6.7736,-1.46084 0.22421,0.24903 0.75131,1.52817 1.17133,2.84252 0.42001,1.31435 0.98281,2.38974 1.25063,2.38974 0.26784,0 0.82274,-1.12068 1.23311,-2.49038 1.43279,-4.78223 2.7204,-7.33544 3.25946,-6.46321 0.40164,0.64985 1.90217,0.40854 7.1057,-1.14275 4.0658,-1.2121 6.82387,-1.73924 7.18908,-1.37403 0.36522,0.36522 0.86591,0.21869 1.30509,-0.38191 0.61552,-0.84177 14.176364,-5.99108 15.777664,-5.99108 1.31384,0 -2.10651,4.29661 -7.903904,9.92881 -3.39835,3.30151 -6.12265,6.02251 -6.054,6.04666 1.27428,0.44825 4.07776,0.37762 4.67467,-0.11777 0.53807,-0.44656 1.2026,-0.42857 2.11013,0.0571 1.01556,0.54351 1.39511,0.51665 1.62635,-0.1151 0.16589,-0.45322 0.69456,-1.97113 1.17482,-3.3731 l 0.87319,-2.54906 0.45646,2.23042 c 0.909634,4.44482 0.692114,4.26847 5.312954,4.3073 2.35877,0.0198 4.78866,0.23584 5.39977,0.48003 0.80336,0.32101 1.259,0.0442 1.64505,-0.9994 0.44121,-1.19268 0.60279,-1.264 0.93027,-0.4106 0.29468,0.76792 0.976,0.95859 2.65648,0.74343 1.41173,-0.18074 2.26015,-0.0223 2.26015,0.42202 0,0.50529 0.26198,0.49396 0.90431,-0.0391 0.49737,-0.41278 1.26022,-2.74204 1.69521,-5.17613 0.435,-2.43409 0.96635,-4.42562 1.18078,-4.42562 0.21444,0 0.7516,1.90684 1.19371,4.23743 0.44211,2.33058 0.96231,4.49385 1.156,4.80725 0.19369,0.3134 1.83305,0.4528 3.64302,0.30978 3.21462,-0.25401 3.2956,-0.31002 3.49561,-2.41751 0.30773,-3.2426 1.19873,-3.5729 1.69614,-0.62877 0.519,3.07188 0.96683,3.46149 3.06282,2.6646 0.9836,-0.37397 1.79311,-0.36789 2.17733,0.0163 0.89852,0.89852 2.31195,0.13719 3.1717,-1.70841 0.63891,-1.37151 0.59034,-1.6705 -0.31863,-1.96151 -2.7382,-0.87667 -2.94779,-1.10596 -1.22594,-1.34118 1.15599,-0.15793 2.08531,-0.8726 2.71296,-2.08635 0.92122,-1.78144 0.89311,-1.87954 -0.80239,-2.79928 l -1.75707,-0.95313 1.93946,-0.0255 c 1.71993,-0.0226 2.01711,-0.3165 2.62565,-2.59637 0.61747,-2.31336 0.55263,-2.66442 -0.64741,-3.50495 -1.30712,-0.91552 -1.29809,-0.93407 0.45446,-0.93407 1.06143,0 1.68906,-0.297 1.54444,-0.73084 -0.23011,-0.69035 -10.18682,-7.22668 -14.10092,-9.2569 -3.35226,-1.73879 -1.26115,-1.55197 7.58799,0.67796 8.98269,2.26357 11.11117,2.26386 11.11117,10e-4 0,-0.53845 0.43015,-1.40915 0.9559,-1.93489 1.31656,-1.31656 1.19649,-2.60304 -0.31864,-3.4139 -1.86352,-0.99733 -1.61522,-2.00978 0.3131,-1.27663 0.8732,0.33199 1.99201,0.44843 2.48625,0.25877 1.24323,-0.47707 1.73303,-2.75586 0.91919,-4.27651 -0.59073,-1.1038 -0.50714,-1.22035 0.65698,-0.91593 1.01739,0.26605 1.64586,-0.15603 2.64894,-1.77906 1.24045,-2.00708 1.25395,-2.1993 0.23793,-3.38593 -0.59978,-0.7005 -1.50156,-1.0952 -2.03475,-0.8906 -0.76123,0.29212 -0.87018,0.0193 -0.5314,-1.33049 0.35618,-1.41889 0.21489,-1.69768 -0.86052,-1.69768 -0.71886,0 -1.28666,-0.42183 -1.28666,-0.95589 0,-1.20627 -0.69173,-1.21245 -2.26794,-0.0203 -1.72279,1.30306 -2.35749,1.1999 -1.57806,-0.25647 0.97996,-1.83108 0.8079,-3.12241 -0.62032,-4.65542 -1.14543,-1.22948 -1.50191,-1.29367 -3.39087,-0.61061 -2.91066,1.0525 -2.89518,1.06288 -2.52543,-1.69389 0.42006,-3.13174 -0.60657,-5.04992 -2.84035,-5.30693 -1.21157,-0.13941 -1.72539,-0.54598 -1.6642,-1.31688 0.0487,-0.61337 -0.19029,-1.11521 -0.53105,-1.11521 -0.34077,0 -0.4959,-0.35846 -0.34476,-0.79658 0.24881,-0.72121 -2.27592,-3.66426 -3.14343,-3.66426 -0.19807,0 -0.21015,0.57354 -0.0268,1.27453 0.22486,0.85989 0.0196,1.27452 -0.63112,1.27452 -0.57615,0 -0.8231,0.36826 -0.61341,0.91472 0.19306,0.5031 0.009,1.04079 -0.40976,1.19487 -0.58108,0.21398 -0.57263,0.47959 0.0358,1.12452 0.43812,0.46441 0.79658,1.6304 0.79658,2.5911 0,0.9607 0.28677,1.92396 0.63726,2.14058 0.3505,0.21662 0.63727,0.71995 0.63727,1.11851 0,0.39857 -0.94565,-0.19189 -2.10145,-1.31213 -2.18447,-2.11728 -3.35901,-2.62573 -2.81985,-1.2207 0.17225,0.44886 -0.34594,1.12716 -1.15153,1.50733 -1.35046,0.63732 -1.49647,0.52179 -1.87224,-1.48123 -0.22416,-1.19484 -0.23705,-2.70968 -0.0286,-3.3663 0.31017,-0.97724 0.12746,-1.12809 -1.007,-0.83142 -1.28211,0.33527 -1.21247,0.0523 0.92971,-3.77832 2.96251,-5.29746 2.95565,-5.78308 -0.0741,-5.24387 -1.31435,0.23392 -2.62441,0.46199 -2.91123,0.50683 -0.28682,0.0448 -1.26953,-1.76169 -2.18381,-4.01449 l -1.66232,-4.09602 1.39061,-2.53876 c 1.60253,-2.92563 1.40545,-3.47514 -0.87386,-2.43662 -0.89424,0.40743 -1.84375,0.74078 -2.11003,0.74078 -0.26629,0 -1.45527,-2.00738 -2.64218,-4.46084 -1.18691,-2.45346 -2.56002,-4.46084 -3.05135,-4.46084 -0.65179,0 -0.44621,-0.76298 0.76037,-2.82185 2.2466,-3.83352 2.13983,-4.40826 -0.60578,-3.26107 l -2.2595,0.94408 -2.51392,-3.96252 c -1.38266,-2.17939 -2.51664,-4.46438 -2.51997,-5.07774 -0.003,-0.61337 -0.26648,-1.11521 -0.58476,-1.11521 -0.53915,0 -6.482194,-8.612017 -8.313514,-12.047057 l -0.81686,-1.532205 2.46479,1.487265 c 1.35565,0.81799 3.611884,2.25805 5.013864,3.20009 1.40198,0.942057 3.90164,2.474297 5.5548,3.404987 2.79531,1.57369 2.96179,1.80778 2.37786,3.34365 -0.55061,1.44819 -0.48915,1.59441 0.49919,1.18781 2.59304,-1.06673 3.32835,-0.91927 8.01123,1.60664 4.02935,2.17341 4.90523,2.92044 4.90523,4.18365 0,1.79052 0.63373,1.90189 3.21796,0.56554 1.78322,-0.92214 1.88014,-0.90572 1.88014,0.31863 0,0.72858 0.42076,1.29089 0.96593,1.29089 1.3513,0 6.04396,1.5087 6.04396,1.94314 0,0.19706 -0.71355,1.32547 -1.58569,2.50757 -2.12129,2.87525 -1.56741,3.1447 1.48869,0.72422 1.38096,-1.09374 2.74502,-1.98861 3.03125,-1.98861 0.28623,0 2.18065,0.64376 4.20982,1.43059 2.54954,0.98861 3.6894,1.77615 3.6894,2.54905 0,1.28861 0.27284,1.35833 1.90256,0.48613 0.84411,-0.45175 2.33346,-0.2889 5.21552,0.57029 2.21871,0.66143 4.84794,1.38795 5.84273,1.61447 1.39368,0.31736 1.65085,0.60208 1.12074,1.24083 -0.37838,0.45592 -0.49928,1.01764 -0.26866,1.24827 0.23063,0.23061 0.10168,0.41931 -0.28655,0.41931 -0.38822,0 -0.8831,-0.28677 -1.09971,-0.63726 -0.5914,-0.9569 -1.59316,-0.76647 -1.59316,0.30285 0,0.75266 -0.33531,0.81264 -1.68154,0.30081 -2.00599,-0.76268 -2.62773,-0.36359 -1.51756,0.97409 1.00178,1.20707 0.197,1.21359 -1.899,0.0154 -2.03009,-1.1605 -2.54906,-1.17265 -2.54906,-0.0597 0,0.58249 -0.44617,0.77956 -1.27452,0.56294 -1.6339,-0.42727 -1.60606,0.102 0.13591,2.58466 1.793,2.55538 3.09613,3.54577 4.13892,3.14562 0.53111,-0.20381 0.82327,0.22373 0.82327,1.20474 0,0.83636 0.57354,1.93403 1.27453,2.43928 0.70099,0.50525 1.27452,1.21649 1.27452,1.58054 0,0.36406 0.51603,0.98419 1.14673,1.37807 0.87452,0.54615 1.43287,0.5069 2.35222,-0.16534 1.72937,-1.26455 2.39119,-1.08689 1.58219,0.42474 -1.6539,3.09035 2.84602,7.72774 6.91865,7.13001 1.98816,-0.2918 2.02683,-0.25276 1.39515,1.40868 -0.90473,2.37963 -0.85279,2.57627 0.93292,3.53196 0.87043,0.46583 1.74421,1.35617 1.94173,1.97851 0.53394,1.68229 2.32843,1.75425 4.06685,0.16309 1.48097,-1.35551 1.49792,-1.4669 0.46326,-3.04598 -1.39194,-2.12436 -0.63274,-2.09347 1.62122,0.066 1.64096,1.57214 1.90844,1.63604 3.433,0.82012 1.3791,-0.73807 1.59105,-1.19659 1.27759,-2.76387 -0.3534,-1.76701 -0.30835,-1.81796 0.75588,-0.85484 1.11919,1.01286 1.64066,1.02734 4.47157,0.12422 1.10722,-0.35322 1.35986,-0.78464 1.06465,-1.81797 -1.00792,-3.52799 -0.9447,-3.81281 0.39803,-1.79307 2.47633,3.72492 2.72267,1.54493 0.91756,-8.12003 -0.9276,-4.96654 -1.59572,-9.29037 -1.48472,-9.60853 0.111,-0.31816 2.2092,3.19054 4.66266,7.79712 2.45347,4.60657 4.80093,8.48356 5.2166,8.61554 0.46804,0.14861 0.84545,-0.68484 0.99136,-2.18927 l 0.23561,-2.42923 0.82345,2.0711 c 0.95233,2.39526 1.13219,2.44449 3.1796,0.87028 1.13928,-0.87598 1.44366,-1.5976 1.20358,-2.85352 -0.45254,-2.36731 0.47223,-2.09885 1.17172,0.34016 0.73976,2.5794 1.6954,2.87836 3.3892,1.06028 0.95548,-1.02558 1.30766,-2.14555 1.20766,-3.84043 -0.21289,-3.60798 0.51413,-3.55376 0.9954,0.0742 0.23212,1.74977 0.71519,3.36259 1.07349,3.58403 1.22236,0.75547 3.4538,-2.48359 3.4538,-5.01337 0,-2.74457 -0.94931,-3.59732 -4.02051,-3.61153 -1.24151,-0.006 -1.94674,-0.27182 -1.71486,-0.64702 0.21662,-0.35049 1.1127,-0.63726 1.9913,-0.63726 0.87859,0 2.15212,-0.29686 2.83007,-0.65968 1.47597,-0.78992 1.64034,-2.52663 0.23912,-2.52663 -0.54642,0 -0.85074,-0.23099 -0.67626,-0.51331 0.17448,-0.28231 0.46205,-1.71473 0.63905,-3.18316 0.29992,-2.4883 0.20507,-2.69575 -1.39484,-3.05055 -0.94416,-0.20942 -3.00711,-0.73962 -4.58433,-1.17827 l -2.86769,-0.79754 3.18632,-0.45907 c 7.03311,-1.01331 6.64158,-0.67734 6.13617,-5.26523 -0.0452,-0.41027 -0.99215,-0.94581 -2.10434,-1.19009 l -2.02216,-0.44414 2.11859,-0.8908 c 1.16523,-0.48994 1.93431,-1.07509 1.70906,-1.30033 -0.22524,-0.22524 -0.0644,-0.82541 0.35747,-1.3337 0.60827,-0.73293 0.56019,-1.0754 -0.23234,-1.6549 -0.7346,-0.53715 -0.82797,-1.0024 -0.35247,-1.75622 0.98846,-1.56703 0.14244,-2.87695 -2.20958,-3.42118 l -2.12588,-0.49189 2.25207,-0.43192 c 3.35769,-0.64395 3.80993,-1.10124 3.37275,-3.410377 -0.21308,-1.12553 -0.63135,-2.35955 -0.92949,-2.742295 -0.29813,-0.38274 -0.35337,-0.88459 -0.12275,-1.11521 0.23063,-0.23062 0.0299,-0.41931 -0.44595,-0.41931 -0.65896,0 -0.62771,-0.18995 0.13106,-0.79658 1.14096,-0.9122 1.96666,-3.66426 1.09939,-3.66426 -0.31768,0 -0.5776,-0.39948 -0.5776,-0.88772 0,-1.04761 -1.35645,-1.65755 -3.71639,-1.67109 -0.93519,-0.005 -2.1305,-0.28774 -2.65624,-0.62751 -0.72967,-0.47155 -0.48459,-0.62005 1.03555,-0.6275 1.0953,-0.005 2.8876,-0.18899 3.98289,-0.40805 1.66653,-0.33331 1.99145,-0.69204 1.99145,-2.19875 0,-1.04245 -0.46952,-2.07394 -1.11521,-2.45002 -1.06211,-0.61862 -1.06211,-0.65047 0,-0.66893 0.77134,-0.0134 1.13463,-0.55975 1.17819,-1.77185 0.0347,-0.96386 0.12198,-2.97332 0.19408,-4.46545 0.23918,-4.95001 -0.48773,-4.73201 -6.92127,2.07571 -3.3123,3.50495 -6.03557,6.13477 -6.05171,5.84406 -0.0564,-1.01636 3.35541,-9.03436 4.03125,-9.47367 0.37509,-0.24381 0.50132,-0.62394 0.28053,-0.84474 -0.22079,-0.22079 0.16327,-2.07363 0.85347,-4.11741 0.99994,-2.961 1.58669,-3.79926 2.88794,-4.12585 1.51986,-0.38146 1.5539,-0.46774 0.49108,-1.2449 -1.02963,-0.75287 -1.06165,-1.12189 -0.32555,-3.751 0.44904,-1.60378 1.2442,-3.08012 1.76704,-3.28075 0.52283,-0.20063 0.79428,-0.77217 0.6032,-1.27009 -0.19106,-0.49792 0.16352,-2.71796 0.78797,-4.93342 l 1.13535,-4.0281 3.41848,-0.5473 3.41847,-0.54731 -2.20145,-1.83441 c -1.84297,-1.53572 -2.04579,-1.94139 -1.24555,-2.49136 0.84129,-0.57818 0.83122,-0.73069 -0.084,-1.27208 -0.9444,-0.55863 -0.89651,-1.0102 0.52134,-4.91632 0.85868,-2.36566 1.86523,-4.48907 2.23677,-4.7187 0.37153,-0.22962 0.51929,-0.67027 0.32835,-0.97922 -0.30988,-0.50139 2.10865,-9.90235 3.17104,-12.32602 0.23045,-0.52575 0.49152,-1.54614 0.58014,-2.26754 0.50542,-4.1142205 3.0184,-13.120261 3.44102,-12.332021 0.26494,0.49412 1.41318,5.19993 2.55167,10.457351 1.13848,5.25742 2.33041,9.88655 2.64875,10.28697 0.38397,0.48297 -0.016,1.1613 -1.1882,2.01519 l -1.76699,1.28717 1.74925,0.79701 c 1.20121,0.54731 1.92677,1.51319 2.31586,3.08291 0.31164,1.25725 0.70772,2.85943 0.8802,3.56042 0.17247,0.70099 0.52018,1.77637 0.7727,2.38974 0.32519,0.78992 0.1604,1.11521 -0.56497,1.11521 -0.56324,0 -1.02407,0.28676 -1.02407,0.63726 0,0.35049 0.4191,0.63726 0.93133,0.63726 0.56063,0 1.211,1.07803 1.63395,2.70837 0.38644,1.4896 0.93963,3.61032 1.22929,4.71272 0.39768,1.51344 0.27621,2.2548 -0.49598,3.02699 -0.93869,0.93869 -0.93481,1.02265 0.0474,1.02265 1.20528,0 2.3894,1.83798 2.3894,3.70884 0,0.68397 0.42838,2.06497 0.95196,3.06889 1.65725,3.17759 1.27171,4.39781 -1.66762,5.27846 -2.97512,0.89137 -2.75359,1.33534 1.44539,2.89674 2.81097,1.04527 3.01171,1.2844 3.98289,4.74576 0.56252,2.00476 1.02275,3.98779 1.02275,4.40673 0,0.41895 0.53957,1.97736 1.19901,3.46315 1.37782,3.10414 3.55905,11.21967 3.13068,11.64803 -0.1583,0.15827 -2.10622,-1.59558 -4.3288,-3.89745 -3.50342,-3.62847 -4.12322,-4.03828 -4.65914,-3.08064 -0.41036,0.73329 -0.38429,1.47906 0.0775,2.21861 0.38267,0.61272 0.53536,2.10222 0.3394,3.31002 -0.40763,2.51184 0.38918,2.9538 5.51583,3.05929 2.45474,0.0505 2.63827,0.13859 1.27453,0.61164 -0.87624,0.30394 -2.81192,0.86589 -4.30153,1.24878 -3.21012,0.82512 -3.50255,2.11539 -0.79657,3.51471 2.41331,1.24797 2.41331,1.930895 0,2.772185 -2.06238,0.71896 -2.62213,2.6125 -0.79658,2.69486 0.66619,0.0301 0.79447,0.179717 0.31863,0.371737 -0.43812,0.17678 -0.79658,0.96864 -0.79658,1.7597 0,1.22085 0.54308,1.56855 3.59263,2.30012 l 3.59257,0.86186 -3.43325,1.31103 c -1.88834,0.72106 -3.79643,1.54592 -4.24028,1.83301 -1.08243,0.70015 -0.37883,1.70844 1.19219,1.70844 1.16313,0 1.13158,0.13426 -0.38886,1.65471 -2.12901,2.12902 -1.77786,3.04366 1.32799,3.45892 l 2.49922,0.33416 -2.32136,0.8079 c -1.83251,0.63778 -2.37916,1.20169 -2.59583,2.67794 -0.35873,2.44436 0.46667,3.17223 3.6108,3.18412 4.56127,0.0173 4.81344,1.07484 0.46049,1.93123 -3.87469,0.76231 -3.93357,0.80555 -3.93357,2.88973 0,1.35175 0.40275,2.34194 1.11521,2.74192 1.05613,0.5929 1.05429,0.64954 -0.0351,1.06913 -0.70424,0.27129 -1.08246,0.96735 -0.97559,1.79533 0.096,0.74375 -0.0172,1.6596 -0.25108,2.03522 -0.23412,0.37563 -0.0297,1.44615 0.45424,2.37894 0.513,0.98887 0.63229,1.84902 0.28601,2.06302 -0.32667,0.20188 -0.59387,1.0102 -0.59387,1.79629 0,1.18793 0.36502,1.4396 2.16204,1.49053 1.61763,0.0459 2.32888,-0.2834 2.82454,-1.30754 l 0.6625,-1.36883 0.0433,1.41142 c 0.0236,0.77629 0.61942,1.71982 1.32373,2.09675 1.07691,0.57637 1.36635,0.45329 1.82027,-0.77416 0.29684,-0.80271 0.70163,-1.88964 0.89956,-2.41538 0.19787,-0.52574 0.38243,0.22943 0.41015,1.67815 0.0497,2.60014 0.54651,3.12177 3.55522,3.73243 0.3505,0.0711 1.17461,0.361 1.83137,0.64415 1.37674,0.59354 1.09074,0.99618 6.33783,-8.92241 3.82231,-7.22518 5.02304,-9.05446 4.55713,-6.94237 -0.64898,2.94171 -3.48602,18.30008 -3.48602,18.87147 0,0.34864 0.44099,0.46466 0.98005,0.25782 0.55761,-0.21399 1.1363,0.0313 1.34265,0.56908 0.48674,1.26835 2.07499,1.19372 3.61908,-0.17006 1.23387,-1.08971 1.25356,-1.06786 0.86273,0.9559 -0.33986,1.75952 0.12261,2.59092 1.06333,1.91178 0.1214,-0.0876 0.6625,0.20737 1.20252,0.65553 0.82525,0.68488 1.22322,0.52797 2.49533,-0.98388 2.51381,-2.98748 3.20205,-2.96053 1.73074,0.0678 -1.28338,2.64168 -1.31015,2.93826 -0.35151,3.8969 0.95863,0.95865 1.16306,0.95542 2.68593,-0.0424 1.63866,-1.07369 1.64599,-1.07052 1.24152,0.54085 -0.5476,2.18195 0.62515,2.76986 2.75151,1.37933 2.6649,-1.74272 3.47486,-2.7512 3.06581,-3.81722 -0.27983,-0.72913 -0.0108,-0.9281 1.05333,-0.7802 1.29402,0.17979 1.41051,-0.0328 1.23438,-2.25197 -0.1931,-2.43338 -0.1843,-2.4434 1.257,-1.43384 1.81817,1.2735 2.5089,1.29412 2.0356,0.0607 -0.20201,-0.52656 -0.0191,-0.95589 0.40773,-0.95589 0.50796,0 0.63694,-0.54833 0.37471,-1.59316 -0.44373,-1.76781 -0.22387,-1.89785 1.57805,-0.93347 0.85833,0.45935 1.23266,0.45456 1.23266,-0.0158 0,-0.3715 0.71692,-0.94803 1.59315,-1.28117 0.87624,-0.33314 1.59316,-1.00786 1.59316,-1.49935 0,-0.4915 0.40587,-1.23047 0.90192,-1.64214 0.66422,-0.55128 0.75605,-1.2569 0.34846,-2.67805 l -0.5534,-1.92955 2.51922,0.42561 c 1.38554,0.23409 2.51917,0.16968 2.51917,-0.14312 0,-0.31282 1.00929,-1.67066 2.24291,-3.01743 2.3262,-2.53965 2.55542,-3.97815 0.31003,-1.94613 -0.70316,0.63643 -1.27848,0.84277 -1.27848,0.45864 0,-0.38413 0.28677,-0.87565 0.63726,-1.09227 1.04626,-0.64661 0.721,-1.76164 -0.38956,-1.33548 -0.76153,0.29223 -0.92282,0.12303 -0.62432,-0.65493 0.22138,-0.57693 -0.75121,-0.007 -2.16128,1.2673 -2.91752,2.6358 -3.83065,2.98243 -2.32454,0.88242 2.11424,-2.94794 2.40891,-3.66426 1.50738,-3.66426 -0.46794,0 -1.23706,0.35846 -1.70908,0.79658 -0.65746,0.61026 -0.75477,0.61314 -0.41607,0.0123 0.3057,-0.54222 -0.35814,-0.91222 -2.15108,-1.19892 -1.42619,-0.22806 -2.72028,-0.6204 -2.87571,-0.87186 -0.30149,-0.48781 8.68736,-3.31233 10.82563,-3.40168 0.70099,-0.0293 1.94811,0.17603 2.77133,0.45627 1.30945,0.44578 1.44499,0.34658 1.08341,-0.7928 -0.34928,-1.10032 -0.008,-1.42381 2.20072,-2.08553 2.33449,-0.69943 2.91911,-0.63502 5.46562,0.60215 4.03094,1.9584 4.70038,1.72074 1.97723,-0.70193 -2.66414,-2.3702 -2.89253,-3.01081 -1.07334,-3.01081 0.70003,0 3.06587,-0.83709 5.25742,-1.8602 3.87781,-1.81036 4.85543,-1.91122 9.3062,-0.96015 l 2.13528,0.4563 -1.0671,-2.06351 c -0.58685,-1.13494 -0.97418,-2.14377 -0.86075,-2.24187 0.1135,-0.0981 1.20997,-0.68823 2.4367,-1.31138 1.22674,-0.62316 5.18146,-2.98418 8.78824,-5.24672 4.3896,-2.7536 6.9793,-4.00348 7.83266,-3.78032 0.97017,0.25371 1.1971,0.0795 0.94953,-0.72901 -0.23554,-0.769157 0.63668,-1.625737 3.16012,-3.103377 1.91701,-1.12254 3.48544,-1.832035 3.48544,-1.576675 0,0.711775 -5.81865,9.932642 -6.57362,10.417272 -0.36585,0.23484 -0.72928,0.86361 -0.8076,1.39726 -0.19692,1.34157 -4.28897,8.01304 -4.92859,8.03526 -0.28626,0.01 -1.50503,-0.73289 -2.70837,-1.65073 -2.77362,-2.11554 -2.76317,-1.51461 0.0414,2.38927 1.44022,2.00465 1.91581,3.10311 1.34361,3.10311 -0.48713,0 -1.06748,0.72421 -1.28963,1.60936 -0.22221,0.88516 -1.03657,2.242 -1.80983,3.01521 -0.77319,0.77322 -1.41555,1.69792 -1.42747,2.0549 -0.0121,0.35698 -0.4434,1.75239 -0.95882,3.10092 l -0.93722,2.45187 -3.08793,-0.40962 c -3.00157,-0.39817 -3.07504,-0.36871 -2.628,1.05307 0.25293,0.80448 0.97297,2.42422 1.6001,3.5994 1.04339,1.95538 1.04753,3.14316 0.0172,4.87319 -0.20877,0.3505 -0.81838,2.07111 -1.35463,3.82358 -0.82596,2.69911 -1.24012,3.21714 -2.7085,3.38796 -1.98036,0.23037 -2.07359,0.61841 -0.85113,3.54415 0.72961,1.7461 0.74292,2.65279 0.0772,5.23695 -0.55334,2.14808 -1.10151,3.0728 -1.75318,2.95752 -0.52147,-0.0923 -1.30824,0.26621 -1.74839,0.79658 -1.35527,1.63298 -2.13139,1.06507 -0.96896,-0.70901 0.84934,-1.2962 0.9167,-1.78439 0.29907,-2.16611 -0.4385,-0.27103 -0.62114,-0.95188 -0.40581,-1.513 0.57302,-1.49328 -0.21476,-1.25008 -2.24202,0.69218 -0.98304,0.94181 -1.78733,1.38889 -1.78733,0.9935 0,-0.39538 0.28677,-0.89611 0.63726,-1.11273 0.3505,-0.21662 0.63726,-0.69667 0.63726,-1.06679 0,-0.37607 -0.69296,-0.2189 -1.57079,0.35624 -2.48284,1.62684 -2.51948,1.22472 -0.14153,-1.55338 2.17364,-2.5394 2.94849,-5.8912 1.20761,-5.22348 -0.45284,0.17369 -0.73961,0.92572 -0.63726,1.67119 0.15817,1.15214 -0.0902,1.32288 -1.65663,1.13864 -1.46883,-0.17277 -1.76382,-0.0112 -1.45385,0.79658 0.27428,0.71478 0.0191,1.01332 -0.86566,1.01332 -1.62164,0 -1.58321,0.68479 0.16308,2.90482 1.22176,1.55321 1.25757,1.74078 0.25943,1.35775 -2.89037,-1.10913 -4.06013,-1.15335 -4.43835,-0.16777 -0.21176,0.55182 -0.84692,1.0033 -1.41154,1.0033 -0.80938,0 -0.9376,0.40499 -0.60603,1.91444 0.41313,1.88102 0.38121,1.90942 -1.82837,1.62653 -1.61674,-0.207 -2.16345,-0.0653 -1.94493,0.50398 0.16709,0.43555 -0.42117,1.42234 -1.30734,2.19285 -0.88618,0.77051 -1.6112,1.95357 -1.6112,2.62903 0,0.83449 -0.58711,1.35706 -1.83181,1.63043 -1.84303,0.40481 -3.52629,1.96228 -5.04037,4.66366 -1.14025,2.03439 -0.48005,2.73547 1.82066,1.93344 2.51598,-0.87707 3.0553,-0.27988 0.97706,1.08186 -1.31034,0.85855 -1.51083,1.30589 -1.00713,2.2471 0.58838,1.09941 0.78268,1.11168 3.01457,0.19035 l 2.38566,-0.9848 -1.87171,1.97492 c -1.37305,1.44879 -1.60119,1.97496 -0.85629,1.97496 0.70927,0 0.91269,0.39308 0.67454,1.30367 -0.43518,1.6643 1.54345,3.2658 3.48723,2.82257 1.7231,-0.39289 1.81404,0.12389 0.31863,1.81137 -0.77727,0.87714 -0.88464,1.33931 -0.35438,1.5252 0.41843,0.14668 0.60279,0.67832 0.40976,1.18142 -0.49101,1.27959 0.21814,1.18776 10.24515,-1.32657 4.87665,-1.22286 8.9538,-2.13622 9.06035,-2.02971 0.10649,0.10652 -3.39502,2.43303 -7.78124,5.17002 -4.38621,2.73698 -7.86611,5.3033 -7.73324,5.70292 0.13293,0.39962 1.03829,0.86997 2.0119,1.04521 l 1.77025,0.31863 -1.34488,1.21398 c -1.69792,1.53267 -1.68409,1.77792 0.20628,3.6683 1.1003,1.10031 1.38095,1.82012 0.96565,2.47664 -1.04467,1.6514 -0.65007,2.51858 1.14745,2.52183 l 1.75248,0.003 -1.75006,1.43068 c -1.30989,1.07078 -1.65184,1.79137 -1.35953,2.86452 0.41473,1.52255 1.50681,1.97721 1.53064,0.63726 0.008,-0.43812 0.57494,-0.0797 1.26031,0.79658 0.68544,0.87624 1.25261,1.22666 1.26038,0.77872 0.014,-0.8174 4.03254,-0.79635 4.85435,0.0254 1.18652,1.18654 4.08148,-1.50425 4.08148,-3.79363 0,-0.80924 0.28677,-1.47135 0.63726,-1.47135 0.3505,0 0.64166,0.78861 0.64708,1.75247 0.0121,2.12764 0.88573,3.65508 1.77631,3.10467 0.35973,-0.22234 0.75031,-0.12301 0.86782,0.22073 0.11758,0.34373 0.85897,0.45545 1.64758,0.24827 1.00879,-0.26501 1.44882,-0.87423 1.48419,-2.05484 l 0.0503,-1.67815 0.61368,1.67344 c 0.4538,1.23738 1.18799,1.76662 2.81741,2.03104 3.29222,0.53426 6.66067,-0.17025 6.68476,-1.39812 0.0178,-0.91094 0.11942,-0.90117 0.86687,0.0834 0.90695,1.19483 2.63355,1.48356 3.21792,0.5381 0.39077,-0.6323 3.52897,0.58644 3.53713,1.37369 0,0.26287 0.42212,0.47794 0.93199,0.47794 0.5701,0 1.09227,-0.92016 1.35622,-2.38973 0.73541,-4.09425 1.25369,-4.13619 2.07334,-0.16778 0.80021,3.87426 1.75751,4.97841 2.13107,2.45794 0.16352,-1.10348 0.67046,-1.39256 2.57422,-1.46783 1.30384,-0.0516 2.54765,-0.27073 2.76394,-0.48707 0.21635,-0.21634 -3.22761,-2.7467 -7.65327,-5.62303 -4.4256,-2.87633 -7.95738,-5.31889 -7.8484,-5.42791 0.10903,-0.10901 2.19945,0.45212 4.64539,1.24698 2.446,0.79486 6.52627,1.97946 9.06736,2.63245 2.94339,0.75637 4.62015,1.50796 4.62015,2.07094 0,0.65424 0.50643,0.77245 1.95054,0.45527 1.15121,-0.25285 3.78272,0.0206 6.42138,0.66722 4.11404,1.0082 4.55445,1.27991 5.51837,3.40478 0.57622,1.27003 1.05608,2.34521 1.06646,2.38929 0.0102,0.0441 0.64848,0.27351 1.41791,0.50983 1.21902,0.3744 1.45449,0.13372 1.83054,-1.87084 0.33921,-1.808 0.65364,-2.20491 1.4687,-1.85394 0.97705,0.42069 13.64348,3.55296 22.06682,5.45688 l 3.82364,0.86424 0.67015,3.49741 c 0.47227,2.46491 0.80155,3.15502 1.11521,2.33761 0.24477,-0.63788 0.44506,-1.54782 0.44506,-2.02208 0,-0.47426 0.30691,-1.66957 0.68206,-2.65625 0.60808,-1.5993 0.75057,-1.67149 1.31366,-0.66534 0.34743,0.62073 0.85049,0.99337 1.11795,0.82807 0.26746,-0.1653 2.18549,0.12853 4.26233,0.65296 2.07684,0.52443 4.67139,1.05708 5.7657,1.18367 1.09431,0.12659 6.5429,1.24304 12.10799,2.481 5.56509,1.23796 11.48055,2.44431 13.1454,2.68077 3.63851,0.5168 3.89482,1.26096 0.63726,1.85009 -1.31435,0.23769 -5.90201,1.27882 -10.1948,2.31361 -4.29273,1.0348 -8.59426,1.99531 -9.55895,2.13447 -0.96462,0.13917 -2.75756,0.56584 -3.98429,0.94817 -1.22673,0.38232 -5.0981,1.26522 -8.60305,1.96198 -3.50495,0.69677 -8.75504,1.79924 -11.66682,2.44993 l -5.29419,1.18309 -0.83424,-1.97653 -0.83424,-1.97654 -0.59329,2.23042 c -0.59093,2.22167 -0.62057,2.23719 -7.5443,3.95232 -5.21262,1.29124 -7.16545,1.54394 -7.80832,1.01041 -0.66555,-0.55239 -0.93747,-0.40465 -1.21609,0.66067 -0.19736,0.75469 -0.58354,1.23329 -0.85813,1.06356 -0.27466,-0.16973 -2.54982,0.15445 -5.05592,0.7204 -2.5061,0.56596 -4.71957,0.86599 -4.91884,0.66674 -0.19921,-0.19925 -0.57647,-1.30881 -0.83832,-2.4657 l -0.47604,-2.10345 -0.86087,3.04232 -0.86088,3.04232 -5.05044,1.59544 c -2.7777,0.87749 -5.19923,1.44661 -5.38111,1.26473 -0.18194,-0.18188 -0.68582,-0.0359 -1.11993,0.32426 -0.84144,0.69833 -10.01018,3.83994 -10.31556,3.53455 -0.0998,-0.0998 2.69008,-3.01847 6.19961,-6.48604 3.5096,-3.4676 6.38104,-6.68299 6.38104,-7.14535 0,-0.50501 -0.31436,-0.64635 -0.7874,-0.354 -0.43302,0.26766 -1.70665,0.40745 -2.83021,0.31065 -1.88439,-0.16235 -2.07601,5.7e-4 -2.46984,2.10001 -0.53288,2.84056 -1.41409,2.94813 -1.67862,0.20492 -0.17868,-1.8534 -0.42129,-2.08217 -2.30778,-2.17644 -1.15944,-0.0579 -2.52101,-0.26379 -3.02572,-0.45746 -1.195,-0.45856 -2.61629,1.78307 -3.18517,5.02364 -0.78116,4.4499 -1.35202,4.54197 -2.09258,0.33754 -0.79658,-4.52238 -1.74374,-6.13549 -2.99354,-5.09827 -0.57883,0.48038 -0.91779,0.43725 -1.18996,-0.15146 -0.31105,-0.67273 -0.45017,-0.67273 -0.76121,0 -0.29053,0.62838 -0.59037,0.64909 -1.26701,0.0875 -0.68824,-0.57122 -0.97374,-0.50801 -1.2772,0.28281 -0.33482,0.87253 -0.56411,0.81435 -1.60074,-0.40618 -1.13166,-1.33239 -1.25382,-1.35156 -1.88637,-0.296 -0.37197,0.62074 -0.97189,0.94595 -1.33309,0.72269 -0.36126,-0.22326 -2.21417,-0.44437 -4.11754,-0.49135 -3.4367,-0.0848 -3.46506,-0.0699 -4.07995,2.14499 -0.34055,1.22673 -0.62082,2.60581 -0.6228,3.06461 -0.008,1.7813 -1.18951,-0.0174 -1.59723,-2.43068 -0.36273,-2.14698 -0.67091,-2.54572 -1.9673,-2.54572 -0.84539,0 -1.54147,0.35846 -1.54689,0.79658 -0.007,0.57684 -0.1632,0.55432 -0.56602,-0.0816 -0.30595,-0.48302 -0.86425,-0.68786 -1.24068,-0.45519 -1.03721,0.641 0.50567,3.56383 1.88113,3.56383 0.62407,0 1.31187,0.28677 1.52848,0.63726 0.21667,0.3505 -0.0395,0.63727 -0.56965,0.63727 -1.73909,0 -4.09563,1.40644 -4.41725,2.63632 -0.21941,0.83903 0.2008,1.48686 1.3798,2.12722 l 1.69531,0.92079 -1.63063,0.0255 c -0.89688,0.014 -2.1542,0.40833 -2.79408,0.87622 -1.24566,0.91086 -1.10705,1.1542 1.87566,3.29297 1.1955,0.85723 1.12349,0.91516 -1.16192,0.93417 -4.07836,0.0339 -2.67555,1.71869 6.07005,7.29021 4.45192,2.83617 8.10822,5.32363 8.1251,5.52768 0.0166,0.20405 -3.48225,-0.5915 -7.77581,-1.76788 -4.29356,-1.17638 -8.95355,-2.29535 -10.35552,-2.4866 -2.81263,-0.38367 -2.84583,-0.44313 1.73004,3.09895 1.40777,1.08972 1.37139,1.09357 -1.09278,0.11548 -3.59359,-1.42641 -3.65133,-1.42112 -3.83059,0.35042 -0.0916,0.90523 0.40466,2.21229 1.14924,3.02699 1.53816,1.6831 1.04702,1.85376 -1.1646,0.40466 -0.8647,-0.56653 -1.57079,-0.72906 -1.57079,-0.36155 0,0.36718 -0.58774,0.85417 -1.30619,1.08219 l -1.3062,0.41457 1.29415,2.19338 c 1.2772,2.16469 1.27759,2.18453 0.0299,1.51686 -1.83997,-0.98471 -4.12283,1.22261 -3.56465,3.44665 0.51796,2.0638 3.09295,4.84511 4.48563,4.84511 0.59386,0 0.89471,0.29932 0.66861,0.66517 -0.62286,1.00788 1.00363,2.59736 2.25234,2.20104 0.89657,-0.28456 1.04034,-0.041 0.78001,1.32093 l -0.3192,1.6698 1.96602,-1.01668 c 2.74788,-1.42098 2.88074,-1.33692 2.42192,1.53236 -0.32883,2.0562 -0.21591,2.54906 0.58373,2.54906 0.58354,0 0.91434,0.44836 0.8041,1.08988 -0.23554,1.37122 4.99442,4.16045 6.75976,3.60506 0.93257,-0.2934 1.11604,-0.14412 0.79658,0.64825 -0.22827,0.56619 -0.58908,1.45959 -0.80187,1.98533 -0.21272,0.52574 -0.0769,0.95589 0.30187,0.95589 0.37879,0 2.05836,1.36215 3.73245,3.027 l 3.04376,3.027 0.20807,-1.81884 c 0.13523,-1.18223 -0.2551,-2.31185 -1.11521,-3.22739 -1.83099,-1.94896 -1.65536,-2.52926 0.36483,-1.20559 1.66836,1.09314 1.67951,1.09007 0.9559,-0.26205 -1.00318,-1.8744 -0.91798,-2.75773 0.22367,-2.31963 1.23241,0.4729 1.21699,-0.38774 -0.0389,-2.18092 -0.97546,-1.39263 -0.96271,-1.40578 0.64797,-0.67189 1.38254,0.62993 1.77172,0.57231 2.45614,-0.36365 0.72801,-0.9956 0.97208,-0.77304 2.32862,2.12326 0.83348,1.77949 1.87164,3.23544 2.30702,3.23544 0.6047,0 0.63459,0.48903 0.1265,2.0711 -0.56717,1.76592 -1.08208,3.00303 -2.95308,7.09444 -0.14287,0.31244 0.98495,0.37622 2.53714,0.14346 l 2.79439,-0.41905 1.54747,3.89598 c 1.59061,4.0046 1.59424,3.90594 -0.3115,8.50549 -0.51949,1.2537 0.12236,1.27159 2.99737,0.0835 0.82812,-0.34222 1.56824,0.53735 3.42452,4.06991 1.30251,2.47857 2.78612,4.50648 3.29707,4.50648 0.73502,0 0.65205,0.448 -0.39758,2.14632 -1.51758,2.45551 -1.705,3.6943 -0.48834,3.22741 0.461,-0.1769 1.44786,-0.0961 2.19301,0.17953 1.82289,0.67433 6.59376,7.55309 6.11104,8.81106 -0.20731,0.54016 -0.0829,0.8987 0.27657,0.79674 0.35941,-0.10196 1.34405,0.81831 2.1881,2.04504 5.5043,7.99989 6.87371,10.0759 6.87371,10.42021 0,0.46809 -5.63933,-2.57825 -7.06622,-3.81714 -0.55672,-0.48339 -2.56409,-1.66498 -4.46084,-2.62576 -2.94486,-1.49173 -3.44473,-2.00537 -3.4221,-3.51656 0.0204,-1.35106 -0.20597,-1.67313 -0.9559,-1.36154 -2.48539,1.03257 -3.37399,0.84528 -7.97815,-1.68163 -4.28992,-2.35444 -4.87194,-2.8832 -4.6206,-4.19787 0.32857,-1.71873 -0.41314,-1.86811 -2.72207,-0.54823 -2.1969,1.25588 -2.75482,1.1743 -2.35755,-0.34481 0.27007,-1.03262 0.10215,-1.22518 -0.81449,-0.93424 -1.07755,0.34199 -6.3869,-1.35169 -6.3869,-2.0374 0,-0.17071 0.60483,-1.15977 1.34405,-2.19791 1.83627,-2.5788 1.26688,-2.78832 -1.46284,-0.53826 l -2.27828,1.87793 -4.37748,-1.48937 c -3.25686,-1.1081 -4.32957,-1.7565 -4.19026,-2.53281 0.21476,-1.19669 -0.1344,-1.28711 -1.71118,-0.44322 -0.7932,0.42448 -2.55083,0.11384 -6.00295,-1.06095 -3.98321,-1.3555 -4.74735,-1.82271 -4.15291,-2.53902 0.54709,-0.65915 0.54479,-1.06163 -0.009,-1.61555 -1.27968,-1.27975 -0.79925,-1.87274 0.67862,-0.83757 1.94174,1.36001 2.57308,1.24378 2.05805,-0.3789 -0.34597,-1.09001 -0.22419,-1.28998 0.59431,-0.9759 0.5662,0.21727 1.02943,0.15595 1.02943,-0.13627 0,-0.29223 0.932,-0.50382 2.07111,-0.4702 1.1391,0.0336 1.96385,-0.22014 1.83276,-0.5639 -0.57054,-1.49582 -2.57734,-3.49269 -3.5101,-3.49269 -0.67066,0 -0.96437,-0.48155 -0.8642,-1.4168 0.096,-0.89632 -0.19933,-1.42306 -0.80409,-1.43384 -0.52575,-0.009 -0.99171,-0.37551 -1.03556,-0.81363 -0.044,-0.43811 -0.11547,-0.94733 -0.15931,-1.13157 -0.044,-0.18425 -0.96584,0.12328 -2.04899,0.68341 -1.95111,1.00894 -1.9652,1.00465 -1.51975,-0.46159 0.24726,-0.81398 0.48037,-1.62337 0.51791,-1.79861 0.0376,-0.17525 -0.45858,-1.10725 -1.1026,-2.07111 -0.89968,-1.34653 -1.67982,-1.75247 -3.36806,-1.75247 -1.71092,0 -2.17211,-0.24681 -2.08378,-1.11521 0.24184,-2.3771 0.0127,-3.00902 -0.79805,-2.19856 -1.09622,1.09627 -1.70767,0.94294 -1.39771,-0.35049 0.14696,-0.61337 0,-1.52269 -0.32392,-2.02072 -0.50426,-0.77237 -0.8301,-0.74895 -2.21627,0.15932 -2.18639,1.43258 -2.51764,1.34109 -1.38777,-0.38331 0.52186,-0.79647 0.79543,-2.01523 0.60789,-2.70837 -0.44067,-1.6287 -5.94669,-5.84588 -6.51748,-4.99186 -0.23464,0.35105 -0.9385,0.82728 -1.5641,1.05829 -1.06417,0.39293 -1.07143,0.54786 -0.11235,2.40247 1.31824,2.54925 0.91243,2.92316 -0.98298,0.90562 -1.80632,-1.92277 -2.54669,-2.01467 -2.54669,-0.31612 0,0.70099 -0.32258,1.27452 -0.71692,1.27452 -0.45666,0 -0.57813,0.69391 -0.33456,1.91179 0.45143,2.25716 0.19493,2.35083 -1.67276,0.61083 -1.14242,-1.06437 -1.51426,-1.14411 -2.0444,-0.43846 -0.35642,0.47438 -1.12509,1.0413 -1.70818,1.25982 -0.83195,0.31181 -0.99694,0.98888 -0.76669,3.14681 l 0.29333,2.74952 -1.29842,-2.34844 c -1.56767,-2.83547 -2.46506,-3.48461 -2.97615,-2.15279 -0.2103,0.54796 -0.92518,0.99629 -1.58863,0.99629 -1.54505,0 -1.5316,0.38236 0.38949,11.11921 0.87477,4.88883 1.57889,9.47712 1.56467,10.19621 -0.014,0.71907 -2.19161,-2.93741 -4.83886,-8.12552 -2.77751,-5.44354 -5.12487,-9.31778 -5.5503,-9.16065 -0.40543,0.14975 -0.65613,0.62284 -0.55716,1.05131 0.099,0.42847 0.32596,2.11323 0.50433,3.74392 l 0.3243,2.96488 -1.68244,-3.97162 c -1.49049,-3.51833 -1.82079,-3.89763 -2.89406,-3.32322 -0.83271,0.44566 -1.21163,1.33887 -1.21163,2.85642 0,2.56082 -0.95214,2.9419 -1.53619,0.61484 -0.21992,-0.87623 -0.82455,-1.63617 -1.3436,-1.68874 -0.51905,-0.0526 -1.30225,-0.12427 -1.74037,-0.15932 -0.48183,-0.0385 -0.93671,1.06921 -1.15134,2.80396 l -0.35476,2.86768 -0.80028,-1.89882 c -0.85259,-2.02289 -1.7758,-2.85511 -3.18466,-2.87089 -0.55849,-0.006 -0.75139,0.4472 -0.53778,1.26413 0.18321,0.70064 0.0567,1.44482 -0.28142,1.65373 -0.97073,0.59993 -0.13576,6.15963 1.05595,7.031 0.96762,0.70755 0.94461,0.83439 -0.26912,1.48395 -0.86914,0.46515 -1.32714,1.33842 -1.32714,2.53047 0,1.73096 0.20309,1.86057 4.14219,2.64354 4.23537,0.84185 5.5338,1.85847 2.38973,1.87106 -0.96386,0.004 -2.82785,0.18476 -4.14221,0.40201 -2.11802,0.35009 -2.38971,0.60404 -2.38971,2.23371 0,1.47449 0.44249,2.04974 2.23377,2.90394 2.34469,1.11808 1.99151,2.07155 -0.77427,2.09072 -1.1675,0.008 -1.38535,0.3363 -1.27453,1.92028 0.0997,1.42467 0.45775,1.92112 1.40816,1.95218 1.13898,0.0372 1.11636,0.10507 -0.21265,0.63774 -2.19384,0.87929 -1.38703,2.03703 2.36832,3.39845 3.67726,1.33311 3.6159,1.70922 -0.46883,2.87239 -2.4541,0.69886 -2.73953,0.97018 -2.47519,2.35306 0.16435,0.85972 0.0503,1.71659 -0.253,1.90415 -1.04265,0.64441 -0.54731,1.30643 1.83793,2.45638 l 2.38974,1.1521 -2.04198,0.97955 c -2.0546,0.98559 -3.02805,2.33921 -2.40605,3.34563 0.18455,0.29861 1.61935,0.73545 3.18841,0.97075 1.56901,0.23529 2.85278,0.6551 2.85278,0.93291 0,0.27781 -1.45003,0.70454 -3.22239,0.9483 -3.01848,0.41514 -3.21001,0.54998 -3.02698,2.1309 0.18029,1.55724 0.45403,1.7026 3.541,1.88033 3.80318,0.21896 4.60059,1.39541 0.95589,1.41029 -2.9114,0.0119 -4.10964,0.66576 -3.38093,1.84489 0.2941,0.4758 0.30996,1.6486 0.035,2.6062 -0.2746,0.9576 -0.31532,2.03435 -0.0904,2.39276 0.53703,0.85562 4.95797,2.06003 7.57821,2.06452 3.54859,0.006 2.27209,1.05637 -2.18072,1.79423 -5.05343,0.83737 -6.65373,2.02523 -5.41042,4.01604 0.70048,1.12171 0.66224,1.50801 -0.24911,2.51502 -1.28976,1.42518 -0.80155,3.149 0.89185,3.149 0.66919,0 2.24622,-0.43015 3.5045,-0.95589 2.57327,-1.07519 5.515,-1.26443 5.515,-0.35477 0,0.33062 -0.64217,1.05092 -1.42702,1.60067 -0.78492,0.54975 -1.43015,1.35462 -1.43384,1.78861 -0.006,0.43399 -1.00376,2.70566 -2.2222,5.04817 -2.05938,3.9591 -2.41848,4.31154 -5.09811,5.00346 -6.57784,1.69846 -6.42462,1.53717 -3.04203,3.20239 1.66485,0.81959 3.02699,1.83972 3.02699,2.26695 0,0.42724 0.17411,1.2304 0.38682,1.78481 0.305,0.79483 -0.0656,1.01008 -1.75247,1.01777 -1.53411,0.007 -1.88001,0.17381 -1.22277,0.58968 0.7731,0.48918 0.56439,1.70923 -1.33374,7.79672 l -2.25026,7.21678 -2.17121,0.20475 c -3.15208,0.29726 -3.67772,1.22736 -0.97967,1.73351 1.27238,0.2387 2.31342,0.59835 2.31342,0.79923 0,1.54013 -2.27437,8.24402 -2.99615,8.83138 -0.49703,0.40447 -0.64548,0.89499 -0.32989,1.09003 0.51509,0.31834 -2.53297,16.03537 -3.24858,16.75097 -0.16078,0.16079 -0.59501,-1.5156 -0.96495,-3.72529 z m 2.29967,-141.70255 c 2.03104,-1.4226 1.9029,-4.39514 -0.25027,-5.80595 -1.49269,-0.97805 -1.84179,-0.99411 -3.34563,-0.15391 -2.07185,1.15755 -2.5625,3.99698 -0.99078,5.73371 1.33694,1.4773 2.70416,1.54471 4.58668,0.22615 z m -4.31218,-1.23012 c -1.07995,-1.30126 -0.29665,-3.97262 1.31481,-4.48408 1.52303,-0.48339 3.77643,1.21958 3.77643,2.85396 0,2.39331 -3.52196,3.52098 -5.09124,1.63012 z m 4.04717,-0.64554 c 0.20174,-0.52574 0.19579,-1.40156 -0.0133,-1.94626 -0.54128,-1.41056 -3.64705,-0.94109 -3.93874,0.59537 -0.39101,2.05964 3.20791,3.28985 3.95197,1.35089 z M 218.9579,301.1842 c 0.24712,-1.12514 1.02687,-3.34759 1.73279,-4.93879 0.95502,-2.15273 1.32406,-4.52391 1.44207,-9.26573 0.14426,-5.79667 0.37404,-6.85922 2.54236,-11.75654 2.0403,-4.60813 2.45573,-6.3528 2.88316,-12.10799 0.31748,-4.27476 0.98389,-7.95136 1.82948,-10.09331 0.73155,-1.85307 1.34158,-4.43398 1.35561,-5.73536 l 0.0255,-2.36615 0.96505,1.77981 c 0.53078,0.97889 1.34862,4.85026 1.81744,8.60305 0.46881,3.75278 1.48619,8.40047 2.26085,10.32819 3.29955,8.21084 3.33081,8.3641 2.88678,14.15368 -0.41962,5.47129 -0.38938,5.63565 2.11576,11.49908 1.3978,3.27165 2.73777,6.99492 2.97771,8.27393 0.48402,2.58 2.54845,3.50199 3.95189,1.76495 0.5383,-0.66622 0.7825,-0.71658 0.79658,-0.16424 0.0115,0.43812 0.45042,0.79658 0.97616,0.79658 0.70685,0 0.97202,-0.7887 1.01784,-3.027 l 0.0618,-3.027 0.93276,2.26454 c 0.80347,1.9506 1.2368,2.27316 3.12578,2.3267 2.48329,0.0704 3.11539,-0.58122 3.21735,-3.31671 0.0395,-1.05148 0.11949,-2.91548 0.17837,-4.14221 l 0.10706,-2.23042 2.46417,2.85129 c 2.38629,2.76113 2.51814,2.82243 4.16929,1.93875 1.50152,-0.80358 1.65574,-1.17582 1.29141,-3.11769 l -0.41371,-2.20515 1.71417,2.03714 c 1.39019,1.65217 1.88777,1.89306 2.63279,1.2747 1.88375,-1.56334 2.2071,-2.9995 1.14007,-5.06293 -1.37879,-2.66625 -0.89663,-2.87889 1.30855,-0.57715 2.05798,2.14804 3.17306,2.39819 3.76884,0.84549 0.25331,-0.66009 -0.17009,-1.68133 -1.12292,-2.70836 -0.84132,-0.9068 -5.20447,-7.09732 -9.69589,-13.75671 -4.49143,-6.6594 -10.27714,-15.22574 -12.8571,-19.03631 -2.57996,-3.81056 -4.60633,-6.99956 -4.50303,-7.08666 0.10324,-0.0871 5.63634,2.97426 12.29573,6.80302 6.6594,3.82876 13.93095,7.97158 16.15895,9.20626 2.22794,1.23469 5.88933,3.37013 8.13632,4.74544 2.24699,1.37531 4.2954,2.50694 4.55216,2.51474 0.25669,0.008 1.18359,0.57495 2.05982,1.26035 1.62228,1.26895 3.18695,1.66022 3.18555,0.79658 -3.8e-4,-0.26287 -0.71883,-1.31288 -1.5964,-2.33335 -1.99789,-2.3231 -1.60584,-2.83929 0.83583,-1.10063 1.88967,1.34555 2.67313,1.23358 2.67313,-0.38201 0,-0.49236 0.46571,-1.36089 1.03491,-1.93006 0.95494,-0.95497 0.89344,-1.15261 -0.79658,-2.56014 -1.28179,-1.06749 -1.4137,-1.31703 -0.43952,-0.83141 2.09335,1.04351 3.19995,0.84262 3.59079,-0.65184 0.26045,-0.99594 -0.41818,-2.16902 -2.61106,-4.51336 l -2.96295,-3.16765 3.48194,0.10685 c 5.34599,0.16404 5.40379,0.14346 6.26155,-2.22852 0.90734,-2.50924 0.56939,-3.50866 -1.18646,-3.50866 -0.65956,0 -1.37648,-0.28677 -1.59315,-0.63726 -0.22693,-0.36727 0.36712,-0.63727 1.40229,-0.63727 1.61362,0 3.97187,-2.1668 3.19919,-2.93949 -0.14651,-0.14647 -1.95863,-0.70161 -4.02705,-1.23363 -2.06837,-0.53203 -4.06682,-1.37112 -4.4409,-1.86465 -0.37407,-0.49354 -2.16637,-1.09449 -3.98289,-1.33546 -1.98954,-0.26391 -3.30274,-0.75578 -3.30274,-1.23704 0,-0.52897 -1.60157,-0.94901 -4.74003,-1.2431 -3.4676,-0.32494 -4.65578,-0.66371 -4.42617,-1.26197 0.24197,-0.6306 -1.84583,-0.92446 -9.12044,-1.28375 -6.04807,-0.29871 -10.00611,-0.78318 -11.02745,-1.34977 -0.87624,-0.4861 -4.01055,-1.32323 -6.96516,-1.86028 -2.95461,-0.53705 -5.4767,-1.08117 -5.60466,-1.20915 -0.12803,-0.12798 2.00259,-0.43308 4.73473,-0.67799 6.13538,-0.55001 7.92832,-0.95529 7.47446,-1.68958 -0.19347,-0.3131 -0.11981,-0.57146 0.16371,-0.57412 2.5423,-0.0238 11.32748,-1.35308 11.897,-1.80005 0.39963,-0.31362 4.16776,-1.07852 8.3737,-1.69981 4.20593,-0.62128 8.22069,-1.34644 8.92168,-1.61149 1.13012,-0.42728 1.05792,-0.53209 -0.63727,-0.92491 -1.05148,-0.24366 -2.19855,-0.52366 -2.54905,-0.62223 -0.35049,-0.0986 0.79658,-0.38143 2.54905,-0.62859 1.75248,-0.24715 4.56625,-1.01734 6.25283,-1.71153 1.68658,-0.69419 4.4753,-1.42902 6.19725,-1.63296 1.72188,-0.20393 2.98991,-0.59865 2.81779,-0.87716 -0.17213,-0.27849 -0.0217,-0.68649 0.33469,-0.90664 1.46379,-0.90466 0.48247,-1.45614 -1.99891,-1.12331 -1.90611,0.25565 -2.51967,0.14953 -2.19282,-0.37928 0.24955,-0.40384 0.79531,-0.73864 1.21278,-0.74401 1.42823,-0.0183 2.39572,-1.04687 1.98685,-2.11229 -0.22457,-0.58535 -0.80785,-1.06426 -1.29606,-1.06426 -1.02172,0 -1.18792,-1.01379 -0.26026,-1.58713 0.44487,-0.27494 0.72457,-3.10923 0.34871,-3.53394 -0.0115,-0.0126 -1.74094,-0.19104 -3.8439,-0.39646 -2.10297,-0.20543 -3.89578,-0.43461 -3.98411,-0.5093 -0.0883,-0.0747 1.0005,-1.35629 2.41956,-2.848 2.19544,-2.3079 2.45684,-2.86059 1.75369,-3.70783 -0.45444,-0.54762 -0.72967,-1.56598 -0.61159,-2.26303 0.22438,-1.32448 -0.31818,-1.32886 -4.99429,-0.0403 -1.49776,0.41273 -1.46621,0.31931 0.52651,-1.56018 2.18313,-2.05914 2.21391,-3.65787 0.0573,-2.97334 -0.87477,0.27763 -1.22093,0.0817 -1.22093,-0.691 0,-2.63972 -4.97804,0.0575 -28.67683,15.53754 -12.07326,7.8863 -14.01978,9.0913 -14.01978,8.67918 0,-0.44715 23.37665,-39.59757 24.52136,-41.06747 0.94226,-1.21004 0.52632,-3.18632 -0.67072,-3.18632 -0.50006,-1e-5 -0.90918,-0.57354 -0.90918,-1.27453 0,-1.8727 -0.76714,-1.55 -2.4353,1.0244 -1.52733,2.35707 -2.66204,2.63021 -1.43989,0.3466 0.37891,-0.70797 0.68888,-1.73622 0.68888,-2.285 0,-1.19391 -1.95621,-1.31965 -3.13043,-0.20121 -0.68149,0.64908 -0.76013,0.54351 -0.42448,-0.57012 0.39383,-1.30682 -0.92964,-3.41277 -2.14477,-3.41277 -0.28084,0 -1.70009,1.29045 -3.15394,2.86768 -1.45386,1.57722 -2.78083,2.86768 -2.94887,2.86768 -0.16799,0 -0.30551,-1.55377 -0.30551,-3.45282 0,-1.89906 -0.17403,-3.90644 -0.38675,-4.46084 -0.5606,-1.46091 -2.48501,-1.23604 -3.64425,0.42582 l -1.00025,1.43384 -0.0331,-1.71486 c -0.044,-2.25044 -1.08946,-2.8226 -2.62259,-1.43511 -1.18474,1.07214 -1.23438,1.06184 -1.23438,-0.2562 0,-1.14994 -1.2419,-1.85692 -2.13247,-1.21398 -0.1214,0.0876 -0.68308,-0.22445 -1.24828,-0.6935 -0.89727,-0.74467 -1.07678,-0.62344 -1.41553,0.95589 -0.21337,0.99479 -1.00647,3.52932 -1.76244,5.63229 -1.05642,2.93874 -1.34633,5.07072 -1.25276,9.21274 0.11326,5.01454 -0.0578,5.80932 -2.46062,11.43333 -2.21087,5.17469 -2.65921,7.0121 -3.11663,12.77282 -0.31152,3.92318 -1.08248,8.24019 -1.84907,10.35389 -0.84056,2.31766 -1.17406,4.32887 -0.92463,5.57605 0.2146,1.07296 0.12516,1.95083 -0.19873,1.95083 -1.04237,0 -2.20584,-4.35689 -2.77776,-10.40198 -0.39916,-4.21899 -1.12267,-7.23976 -2.55047,-10.64849 -2.85593,-6.81829 -3.20093,-8.60384 -2.76645,-14.31762 0.35609,-4.68292 0.23039,-5.48733 -1.54355,-9.87757 -1.06217,-2.62871 -2.45758,-6.50008 -3.10091,-8.60305 -0.91945,-3.00556 -1.46903,-3.86617 -2.56885,-4.02267 -1.27014,-0.18074 -1.41749,0.11309 -1.5979,3.18631 l -0.19873,3.38541 -0.79673,-2.63532 c -0.53957,-1.78472 -1.24224,-2.75183 -2.17696,-2.99626 -1.9013,-0.4972 -2.49455,0.0203 -2.11728,1.84706 1.03839,5.02776 1.02739,5.18707 -0.19361,2.80408 -1.98607,-3.87615 -1.96235,-3.85487 -3.33854,-2.99542 -0.93315,0.58275 -1.24743,1.49728 -1.25474,3.65121 -0.0149,4.38972 -0.80129,5.11546 -2.87391,2.65228 -0.94306,-1.12075 -2.29664,-2.3492 -3.00797,-2.7299 -1.15565,-0.61848 -1.25881,-0.53216 -0.9691,0.81095 0.17832,0.82671 0.53055,2.07665 0.78274,2.77763 0.29591,0.82253 -0.18856,0.52673 -1.36609,-0.83408 -1.70401,-1.96923 -1.93331,-2.0522 -3.46944,-1.25525 -1.34534,0.69797 -1.5486,1.11353 -1.11629,2.28218 0.47192,1.27571 0.3952,1.35744 -0.71602,0.76274 -0.89994,-0.48163 -1.60159,-0.44314 -2.53379,0.13903 -1.60747,1.00388 -1.63811,2.26195 -0.0965,3.96242 0.65597,0.72358 2.90487,4.18328 4.99756,7.68822 2.09269,3.50495 7.43473,12.33249 11.87121,19.61676 4.43644,7.28427 8.06629,13.40642 8.06629,13.60478 0,0.19836 -0.932,-0.19963 -2.0711,-0.88443 -19.35206,-11.6339 -35.67177,-21.65916 -37.4392,-22.99906 -2.56792,-1.94675 -4.68343,-2.32113 -5.76334,-1.01992 -0.60453,0.72842 -0.31256,1.34636 1.48586,3.14478 2.51236,2.51236 2.33898,2.84522 -0.50199,0.96372 -3.89448,-2.57922 -7.07575,-1.01604 -4.30152,2.11363 1.08299,1.22174 1.06469,1.24878 -0.63322,0.9359 -1.02905,-0.18963 -2.03424,0.0222 -2.44309,0.51482 -0.53055,0.63928 -0.004,1.57476 2.22638,3.95984 1.60657,1.71755 2.92103,3.33098 2.92103,3.5854 0,0.25442 -1.86032,0.26336 -4.13406,0.0199 -3.51689,-0.37663 -4.19437,-0.28552 -4.53812,0.61027 -0.23215,0.60496 0.0776,1.58519 0.72788,2.30379 1.06105,1.17245 1.06304,1.25079 0.0317,1.25079 -1.06356,0 -2.92093,1.4089 -2.92093,2.21566 0,0.2172 0.932,0.8 2.0711,1.2951 l 2.07111,0.90019 -1.94365,0.0249 c -2.32412,0.0298 -3.47309,1.02892 -3.47309,3.02008 0,1.28149 0.31565,1.4657 2.51144,1.4657 1.3813,0 2.66859,0.25426 2.86065,0.56502 0.19206,0.31076 1.36403,0.7554 2.60437,0.98809 1.24034,0.23269 2.09965,0.67471 1.90958,0.98226 -0.41745,0.67543 0.82602,1.05932 5.24956,1.62062 1.84042,0.23354 3.20422,0.65439 3.03066,0.93522 -0.43667,0.70654 1.25016,1.26938 4.03075,1.34494 2.69966,0.0734 6.33145,1.04196 4.30251,1.14748 -3.10718,0.1616 0.14272,0.62254 9.48998,1.34599 5.8642,0.45388 10.72742,1.13585 11.47073,1.60855 1.02581,0.65236 8.54077,2.17081 10.97139,2.21684 0.28336,0.005 0.11775,0.26147 -0.36803,0.56911 -0.48577,0.30765 -3.30192,0.76083 -6.2581,1.00707 -4.07363,0.33934 -5.29645,0.65214 -5.0509,1.29202 0.24408,0.63607 -0.88424,0.94459 -4.57537,1.25106 -2.69463,0.22372 -5.90303,0.82002 -7.12976,1.32509 -1.22673,0.50508 -5.36063,1.34817 -9.18644,1.87355 -3.8258,0.52537 -7.09775,1.09696 -7.27099,1.2702 -0.17324,0.17324 0.59114,0.4962 1.6986,0.71769 1.10747,0.2215 2.01357,0.5888 2.01357,0.81624 0,0.64251 -14.6648,3.91549 -17.52472,3.91127 -1.40198,-0.002 -2.97921,0.26825 -3.50495,0.60071 -0.84306,0.53311 -0.83467,0.72571 0.0711,1.63171 0.83344,0.83368 1.49396,0.91011 3.50495,0.40559 5.94997,-1.49274 6.18563,-1.31699 1.52207,1.13516 -2.62871,1.38221 -4.42101,2.52731 -3.98289,2.54465 0.43812,0.0173 0.79658,0.74846 0.79658,1.6247 0,0.87623 0.28677,1.59315 0.63726,1.59315 0.3505,0 0.56557,0.35846 0.47795,0.79658 -0.11203,0.56011 1.11761,0.85252 4.14221,0.98501 2.36584,0.10364 4.30152,0.271 4.30152,0.37192 0,0.10091 -1.1407,1.41908 -2.5349,2.92926 -2.43962,2.64259 -3.65503,4.87129 -3.0089,5.51743 0.16937,0.16936 1.37764,-0.13902 2.68507,-0.68529 1.30741,-0.54628 2.98733,-0.99149 3.73313,-0.98937 1.04636,0.003 0.66947,0.47593 -1.65042,2.0711 -1.65356,1.13699 -3.0157,2.40639 -3.027,2.82089 -0.028,1.02885 2.21399,1.66056 3.96234,1.1164 1.40824,-0.4383 1.41282,-0.42272 0.2562,0.8728 -2.1715,2.43228 0.54266,3.75195 3.04836,1.48216 1.53783,-1.39301 39.70265,-22.38698 40.6972,-22.38698 0.18819,0 -5.65631,8.94552 -12.98777,19.87895 -7.33145,10.93343 -13.32992,20.39678 -13.32992,21.02967 0,0.6329 0.40626,1.15073 0.9028,1.15073 0.49653,0 0.99837,0.26672 1.11521,0.59273 0.11682,0.326 1.05694,0.68446 2.08914,0.79658 1.65329,0.17958 2.24127,-0.28151 4.93879,-3.87292 1.68413,-2.24221 3.06206,-3.86957 3.06206,-3.61636 0,0.25323 -1.2099,2.49698 -2.68868,4.98612 -1.76897,2.97762 -2.42293,4.61429 -1.91179,4.78467 0.4273,0.14243 0.77689,0.66522 0.77689,1.16175 0,0.49654 0.43015,0.90279 0.9559,0.90279 0.52574,0 0.95589,0.28677 0.95589,0.63727 0,0.35049 0.78861,0.6417 1.75247,0.64712 1.27608,0.007 2.38101,-0.72086 4.06465,-2.67822 l 2.31217,-2.6881 0.45865,3.95177 c 0.25226,2.17346 0.68471,3.81204 0.96101,3.64128 0.27629,-0.17076 0.66382,0.307 0.86119,1.06169 0.31001,1.18552 0.49939,1.25549 1.39234,0.5144 0.56845,-0.47176 1.40952,-1.73768 1.86906,-2.81316 l 0.83553,-1.95542 -0.0843,3.00131 c -0.0464,1.65072 0.20244,3.05672 0.55294,3.12445 0.35049,0.0677 1.27777,-0.99608 2.06062,-2.36404 l 1.42336,-2.48719 0.0104,2.01898 c 0.0147,2.82772 0.59509,4.03502 1.93981,4.03502 0.78279,0 1.3007,-0.66011 1.60503,-2.04569 z m 80.46483,-92.06728 c 0.46004,-0.18408 1.00968,-0.16145 1.22144,0.0503 0.21176,0.21176 -0.1646,0.36238 -0.83641,0.33471 -0.74234,-0.0306 -0.89337,-0.18158 -0.38503,-0.38501 z m -126.0142,78.44661 c 1.13206,-1.36405 -0.007,-3.1329 -2.01685,-3.1329 -1.56028,0 -2.28513,1.45461 -1.60633,3.22354 0.46919,1.22268 2.57698,1.16995 3.62318,-0.0906 z m 118.38298,0.44954 c 0.46883,-0.29714 0.7556,-1.22475 0.63726,-2.06135 -0.29594,-2.09304 -3.41356,-2.53457 -4.03655,-0.57166 -0.72329,2.27877 1.38363,3.91068 3.39929,2.63301 z m 92.72659,-51.40464 c -0.20756,-0.54086 -0.51402,-0.8467 -0.68104,-0.67966 -0.16709,0.16705 -0.11471,0.60957 0.1163,0.98338 0.6284,1.01673 0.99566,0.81921 0.56474,-0.30372 z m -235.26076,-3.89486 c 2.30013,-2.08158 0.65616,-5.95523 -2.52738,-5.95523 -2.92037,0 -4.30789,3.58433 -2.26246,5.84451 1.31159,1.44928 3.26096,1.49435 4.78984,0.11072 z m -4.70848,-1.22525 c -0.91122,-1.99991 -0.0731,-3.67612 1.99114,-3.98231 2.94749,-0.43722 4.5805,3.59111 2.01284,4.96528 -1.99298,1.06661 -3.20579,0.76886 -4.00398,-0.98297 z m 4.17546,-0.37504 c 0.82009,-1.30235 -0.42684,-3.08041 -2.16025,-3.08041 -1.46199,0 -2.23349,2.30719 -1.19138,3.56286 0.96419,1.16177 2.45102,0.94776 3.35163,-0.48245 z m 168.77042,1.60029 c 2.21799,-2.00724 1.00222,-5.95523 -1.83385,-5.95523 -3.41433,0 -5.14622,3.42432 -2.95601,5.84451 1.31162,1.44928 3.261,1.49435 4.78986,0.11072 z m -4.70848,-1.22525 c -0.91122,-1.99991 -0.0732,-3.67612 1.99113,-3.98231 2.83499,-0.42053 4.29012,2.57751 2.24406,4.62355 -1.50847,1.50844 -3.38521,1.22429 -4.23519,-0.64124 z m 4.2016,-0.4165 c 0.53447,-0.8487 0.45138,-1.34666 -0.36024,-2.15824 -1.90905,-1.90906 -4.75723,0.58594 -3.03618,2.65968 0.99088,1.19393 2.46595,0.97616 3.39642,-0.50144 z m 51.37875,-0.20888 c 0,-0.50506 -0.43016,-0.91828 -0.9559,-0.91828 -1.07206,0 -1.11546,0.11705 -0.57047,1.53737 0.44767,1.16663 1.52637,0.72911 1.52637,-0.61909 z m 11.47073,-0.31863 c 0,-0.37118 0.33112,-0.47026 0.73578,-0.22017 0.47043,0.29077 0.56207,0.17379 0.25414,-0.32447 -0.26484,-0.42854 -0.84775,-0.63864 -1.29536,-0.46689 -0.44755,0.17176 -1.06378,0.0849 -1.36935,-0.19291 -0.30557,-0.27785 -1.34424,-0.69106 -2.3081,-0.91823 -1.89389,-0.44639 -2.40828,0.61225 -0.98776,2.03283 0.9441,0.94407 4.97065,1.01685 4.97065,0.0898 z m -14.91482,-0.69812 c 0.2788,-0.45104 0.17512,-0.56293 -0.26784,-0.28915 -0.3974,0.2456 -1.37369,0.1307 -2.16956,-0.25533 -1.38701,-0.67279 -1.39574,-0.6608 -0.20998,0.28916 1.47673,1.1831 2.04039,1.23746 2.64738,0.25532 z m 0.006,-4.18978 c -0.64778,-0.64779 -1.18225,0.32748 -0.65077,1.18746 0.40148,0.64964 0.55161,0.65014 0.76746,0.003 0.14759,-0.44277 0.0951,-0.97828 -0.11669,-1.19004 z m -72.7152,-52.74678 c 0,-1.59667 -0.27982,-1.94415 -1.69773,-2.10815 -1.26541,-0.14636 -1.80626,0.14543 -2.12374,1.14579 -0.54333,1.71179 0.75758,3.31191 2.49119,3.06422 1.01102,-0.14446 1.33028,-0.6489 1.33028,-2.10186 z m -118.31579,-0.24114 c 1.40926,-0.89327 0.63999,-3.55164 -1.0989,-3.79751 -2.36404,-0.33425 -3.32299,1.65259 -1.61971,3.35587 1.13879,1.13879 1.52084,1.20085 2.71861,0.44164 z m 59.22721,-21.46193 c 1.69299,-1.18582 1.86695,-3.82641 0.36166,-5.48974 -2.07246,-2.29005 -5.95523,-0.55693 -5.95523,2.65819 0,1.76624 1.88589,3.82358 3.50494,3.82358 0.36977,0 1.30966,-0.44642 2.08863,-0.99203 z m -3.2034,-0.13683 c -0.61313,-0.13143 -1.30159,-0.98327 -1.52991,-1.89299 -0.54334,-2.16481 1.79402,-4.31762 3.62427,-3.33811 1.65894,0.88784 2.06505,1.7446 1.63643,3.45234 -0.38342,1.52766 -1.78492,2.19586 -3.73079,1.77876 z m 2.93839,-1.73883 c 0.59096,-1.54003 -0.25332,-2.86768 -1.82362,-2.86768 -0.80123,0 -1.62185,0.43015 -1.82361,0.9559 -0.59096,1.54003 0.25332,2.86768 1.82361,2.86768 0.80124,0 1.62186,-0.43015 1.82362,-0.9559 z"
       id="path60" />
  </g>
</svg>
